<?xml version="1.0" standalone="no"?>
<!DOCTYPE svg PUBLIC "-//W3C//DTD SVG 20010904//EN"
 "http://www.w3.org/TR/2001/REC-SVG-20010904/DTD/svg10.dtd">
<svg version="1.0" xmlns="http://www.w3.org/2000/svg"
 width="262.000000pt" height="65.000000pt" viewBox="0 0 262.000000 65.000000"
 preserveAspectRatio="xMidYMid meet">

<g transform="translate(0.000000,65.000000) scale(0.100000,-0.100000)"
fill="#000000" stroke="none">
<path d="M113 628 c-39 -28 -66 -89 -58 -129 10 -45 52 -72 103 -66 69 8 104
53 65 83 -17 12 -17 14 -2 29 16 16 82 25 94 13 7 -6 -47 -185 -65 -219 -13
-24 -48 -33 -66 -18 -12 10 -14 23 -10 51 6 38 6 38 -27 38 -47 0 -98 -37
-124 -90 -29 -56 -29 -104 0 -160 29 -59 79 -79 147 -60 87 24 125 91 169 302
25 115 38 148 62 148 25 0 49 27 49 56 0 19 -5 24 -25 24 -14 0 -34 -5 -44
-12 -15 -9 -29 -7 -69 10 -70 30 -156 30 -199 0z"/>
<path d="M1644 631 c-32 -20 -64 -74 -64 -111 0 -11 7 -34 15 -50 19 -37 70
-49 122 -29 50 19 62 42 38 69 -19 22 -19 22 0 36 18 13 85 20 85 9 0 -15 -98
-183 -123 -212 -48 -54 -95 -36 -83 32 7 34 6 35 -26 35 -58 0 -137 -69 -138
-120 0 -23 -12 -36 -39 -45 l-24 -7 6 63 c4 35 10 83 13 107 6 39 5 42 -17 42
-14 0 -35 -7 -47 -16 -20 -14 -24 -14 -44 0 -32 23 -76 20 -112 -8 -28 -21
-48 -57 -85 -148 -8 -20 -18 -28 -36 -28 -28 0 -30 7 -14 80 10 46 13 50 39
50 56 0 65 60 10 68 -20 3 -22 8 -16 43 9 54 -6 51 -93 -17 -68 -53 -72 -54
-93 -40 -35 25 -118 21 -159 -7 -62 -42 -47 -111 34 -153 28 -15 37 -44 14
-44 -7 0 -26 14 -42 30 -33 35 -69 39 -87 10 -16 -25 -38 -26 -38 -2 0 10 5
44 11 76 16 78 4 106 -48 106 -21 0 -53 -9 -71 -20 -40 -25 -38 -25 -45 1 -5
19 -11 21 -47 16 -49 -6 -99 -35 -80 -47 10 -6 9 -27 -4 -103 -24 -140 -24
-141 22 -132 52 10 69 29 83 94 15 72 25 91 50 91 28 0 32 -20 19 -84 -14 -66
-4 -91 40 -101 21 -5 43 -1 72 14 35 17 43 18 62 6 81 -51 226 0 226 79 0 23
-34 60 -82 91 -16 9 -28 21 -28 26 0 16 26 9 45 -11 22 -24 48 -26 69 -5 15
16 36 20 36 8 0 -5 -7 -43 -15 -85 -8 -43 -12 -84 -9 -92 3 -8 18 -20 34 -26
34 -14 81 -2 116 31 l21 20 17 -26 c25 -38 72 -34 124 11 l42 36 6 -31 c4 -17
13 -36 20 -42 18 -15 75 -4 107 22 l26 20 19 -44 c36 -81 130 -98 215 -40 26
18 46 45 68 92 46 101 53 114 67 119 9 3 12 -13 12 -57 0 -75 13 -109 44 -117
32 -8 62 10 86 49 11 18 20 29 20 26 0 -3 -9 -54 -20 -114 -11 -60 -20 -110
-20 -112 0 -12 53 1 81 20 30 20 36 31 49 95 14 65 17 71 30 57 64 -63 177 20
196 144 15 99 -48 145 -148 106 -13 -5 -17 0 -20 22 -3 24 -8 28 -38 31 -41 3
-116 -36 -89 -47 13 -5 13 -15 -1 -96 -10 -56 -18 -83 -23 -72 -3 10 -17 17
-31 17 -15 0 -26 7 -28 18 -6 28 10 116 37 199 29 91 24 103 -44 103 -25 0
-70 9 -99 20 -66 25 -137 26 -178 1z m263 -103 c-3 -7 -14 -37 -23 -65 -13
-38 -23 -53 -36 -53 -10 0 -18 3 -18 6 0 15 64 124 72 124 5 0 7 -6 5 -12z
m-597 -168 c15 -28 -4 -62 -33 -58 -39 5 -31 78 9 78 7 0 18 -9 24 -20z m874
-3 c15 -23 -4 -52 -35 -52 -30 0 -37 30 -13 56 20 22 33 21 48 -4z"/>
<path d="M2355 475 c-42 -22 -53 -35 -31 -35 14 0 16 -6 12 -27 -3 -16 -19
-104 -36 -198 -17 -94 -33 -178 -36 -187 -7 -25 26 -24 76 2 33 17 40 26 49
70 6 28 11 59 11 70 0 10 5 22 10 25 6 3 10 2 10 -3 0 -16 49 -32 80 -26 91
19 155 187 99 259 -19 23 -27 26 -63 22 -23 -2 -51 -8 -63 -12 -18 -6 -22 -3
-25 22 -2 23 -8 28 -33 31 -16 1 -43 -5 -60 -13z m145 -115 c22 -42 -30 -82
-59 -46 -19 22 6 61 41 65 4 1 12 -8 18 -19z"/>
</g>
</svg>
